# xmcd CD database file
#
# Track frame offsets:
#	150
#	28337
#	56989
#
# Disc length: 1139 seconds
#
# Revision: 1
# Processed by: cddbd v1.5.1PL2 Copyright (c) Steve Scherf et al.
# Submitted via: CD2WAV32(JP) R3.22
#
DISCID=28047103
DTITLE=沢 知恵 - 死んだ男の残した物は
DYEAR=2003
DGENRE=Pop
TTITLE0=死んだ男の残した物は
TTITLE1=満月の夕
TTITLE2=ここにも
EXTD=
EXTT0=
EXTT1=
EXTT2=
PLAYORDER=
